# xmcd
#
# Track frame offsets:
#	150
#	24534
#	61176
#	81041
#	97948
#	120905
#	146285
#	166464
#	189497
#	211019
#
# Disc length: 3241 seconds
#
# Revision: 0
# Processed by: cddbd v1.5.2PL0 Copyright (c) Steve Scherf et al.
# Submitted via: EZCDAudioConverter 8.3.2.1
#
DISCID=720ca70a
DTITLE=Blindside Blues Band - Live At Satyr Blues
DYEAR=2019
DGENRE=Blues Rock
TTITLE0=Let The Blues Do The Healing (Live)
TTITLE1=Crying Shame (Live)
TTITLE2=Renegade (Live)
TTITLE3=Flying (Live)
TTITLE4=Blues In My Soul (Live)
TTITLE5=Hit The Highway (Live)
TTITLE6=Smokehouse Shuffle (Live)
TTITLE7=Hot Shot (Live)
TTITLE8=Crossroads (Live)
TTITLE9=Climb The Sky (Live)
EXTD=
EXTT0=
EXTT1=
EXTT2=
EXTT3=
EXTT4=
EXTT5=
EXTT6=
EXTT7=
EXTT8=
EXTT9=
PLAYORDER=
